<svg t="1639447221471" class="icon" viewBox="0 0 1024 1024" version="1.1" xmlns="http://www.w3.org/2000/svg" p-id="3962" width="200" height="200"><path d="M676.34 512l215.83-400.83A32 32 0 0 0 864 64H646.23a95.89 95.89 0 0 0-84.53 50.49l-49.7 92.3-49.7-92.3A95.89 95.89 0 0 0 377.77 64H160a32 32 0 0 0-32 32v832a32 32 0 0 0 32 32h217.77a95.87 95.87 0 0 0 84.53-50.49l49.7-92.3 49.7 92.3A95.87 95.87 0 0 0 646.23 960H864a32 32 0 0 0 28.17-47.17z m78.77-384h55.31L640 444.5l-27.66-51.36zM192 128h76.89l206.77 384L448 563.36l-3.73-6.93-0.27-0.43-127.74-237.3a32 32 0 0 0-60.26 15V896h-64z m454.23 768a32 32 0 0 1-28.18-16.83l-69.71-129.46L576 698.35 682.42 896z m108.88 0L604.35 616a1.09 1.09 0 0 0-0.08-0.15l-0.1-0.18a32 32 0 0 0-56.34 0l-64 118.84-0.1 0.2-0.07 0.13L406 879.17A32 32 0 0 1 377.77 896H320V460.64l64 118.86v110.79a32 32 0 0 0 60.27 15l32-59.44a1.09 1.09 0 0 0 0.08-0.15l63.82-118.53a0.21 0.21 0 0 0 0-0.06 32 32 0 0 0 0-30.28L341.58 128h36.19A32 32 0 0 1 406 144.83l77.67 144.24A32 32 0 0 0 512 306.29a32 32 0 0 0 28.38-17.22l77.67-144.24A32 32 0 0 1 646.23 128h36.19L547.83 378a32 32 0 0 0 0 30.28 0.21 0.21 0 0 0 0 0.06l63.82 118.53a1.09 1.09 0 0 0 0.08 0.15l0.1 0.18L810.42 896z" fill="#ffffff" p-id="3963"></path></svg>