<?xml version="1.0" standalone="no"?><!DOCTYPE svg PUBLIC "-//W3C//DTD SVG 1.1//EN" "http://www.w3.org/Graphics/SVG/1.1/DTD/svg11.dtd"><svg t="1649328459529" class="icon" viewBox="0 0 1536 1024" version="1.1" xmlns="http://www.w3.org/2000/svg" p-id="7412" xmlns:xlink="http://www.w3.org/1999/xlink" width="96" height="64"><defs><style type="text/css">@font-face { font-family: feedback-iconfont; src: url("//at.alicdn.com/t/font_1031158_u69w8yhxdu.woff2?t=1630033759944") format("woff2"), url("//at.alicdn.com/t/font_1031158_u69w8yhxdu.woff?t=1630033759944") format("woff"), url("//at.alicdn.com/t/font_1031158_u69w8yhxdu.ttf?t=1630033759944") format("truetype"); }
</style></defs><path d="M1535.98495 15.894171v992.211658c0 8.69965-7.585854 15.864068-16.887557 15.864068H17.03807c-9.422112 0.030103-17.007967-7.134315-17.007967-15.864068V15.894171C0.030103 7.19452 7.615958 0.030103 17.03807 0.030103h1502.059323c9.301702 0 16.887556 7.164418 16.887557 15.864068z" fill="#FFFFFF" p-id="7413"></path><path d="M1519.097393 0.030103H17.03807C7.615958 0.030103 0.030103 7.19452 0.030103 15.894171v62.884322h1535.954847V15.894171c0-8.69965-7.585854-15.864068-16.887557-15.864068zM0.030103 157.526884h1535.954847v78.838698H0.030103zM0.030103 315.113972h1535.954847v78.748391H0.030103zM0.030103 472.580651h1535.954847v78.838698H0.030103zM0.030103 630.16774h1535.954847v78.74839H0.030103zM0.030103 787.664521h1535.954847v78.838698H0.030103zM0.030103 1008.105829c0 8.729753 7.585854 15.894171 17.007967 15.894171h1502.059323c9.301702 0 16.887556-7.164418 16.887557-15.864068V945.251609H0.030103v62.85422z" fill="#B41C31" p-id="7414"></path><path d="M778.332717 0.030103v551.389246H0.030103V15.894171C0.030103 7.19452 7.615958 0.030103 17.03807 0.030103h761.294647z" fill="#192F58" p-id="7415"></path><path d="M55.178059 58.278625l-7.07411 21.764177 18.543199-13.45586 18.543199 13.45586-7.104213-21.764177 18.543199-13.485963h-22.908075L66.647148 22.998383l-7.104213 21.794279h-22.908075zM184.197784 58.278625l-7.07411 21.764177 18.543199-13.45586 18.543199 13.45586-7.104212-21.764177 18.543199-13.485963h-22.908076L195.666873 22.998383l-7.104212 21.794279h-22.877973zM313.21751 58.278625l-7.07411 21.764177 18.543199-13.45586 18.543199 13.45586-7.104213-21.764177 18.543199-13.485963h-22.908075l-7.07411-21.794279-7.104213 21.794279h-22.908075zM442.237235 58.278625l-7.07411 21.764177 18.543199-13.45586 18.543199 13.45586-7.104212-21.764177 18.543199-13.485963h-22.908076l-7.07411-21.794279-7.104212 21.794279h-22.908076zM571.287063 58.278625l-7.104212 21.764177 18.543199-13.45586 18.513096 13.45586-7.07411-21.764177 18.543199-13.485963h-22.908075l-7.104213-21.794279-7.07411 21.794279h-22.908075zM700.276686 58.278625l-7.07411 21.764177 18.513096-13.45586 18.543199 13.45586-7.07411-21.764177 18.543199-13.485963h-22.908075l-7.07411-21.794279-7.104213 21.794279h-22.877972zM119.687922 113.546991l-7.07411 21.79428 18.513096-13.455861 18.543199 13.455861-7.07411-21.79428 18.543199-13.45586h-22.908075L131.157011 78.296852l-7.07411 21.794279h-22.938178zM248.73775 113.546991l-7.104213 21.79428 18.543199-13.455861 18.513096 13.455861-7.07411-21.79428 18.543199-13.45586h-22.908075L260.146633 78.296852l-7.07411 21.794279h-22.908075zM377.727372 113.546991l-7.07411 21.79428 18.543199-13.455861 18.543199 13.455861-7.104212-21.79428 18.543199-13.45586h-22.908076l-7.07411-21.794279-7.104212 21.794279h-22.908075zM506.747098 113.546991l-7.07411 21.79428 18.543199-13.455861 18.543199 13.455861-7.104213-21.79428 18.543199-13.45586h-22.908075l-7.07411-21.794279-7.104213 21.794279h-22.908075zM635.766823 113.546991l-7.07411 21.79428 18.543199-13.455861 18.543199 13.455861-7.104212-21.79428 18.543199-13.45586h-22.908076L647.235912 78.296852l-7.07411 21.794279h-22.938178zM48.103949 190.639739l18.543199-13.485963 18.543199 13.485963-7.104213-21.794279 18.543199-13.455861h-22.908075l-7.07411-21.824382-7.104213 21.824382h-22.908075l18.543199 13.485963zM177.123674 190.639739l18.543199-13.485963 18.543199 13.485963-7.104212-21.794279 18.543199-13.455861h-22.908076l-7.07411-21.824382-7.104212 21.824382h-22.877973l18.513096 13.455861zM306.1434 190.639739l18.543199-13.485963 18.543199 13.485963-7.104213-21.794279 18.543199-13.455861h-22.908075l-7.07411-21.824382-7.104213 21.824382h-22.908075l18.543199 13.455861zM435.163125 190.639739l18.543199-13.485963 18.543199 13.485963-7.104212-21.794279 18.543199-13.455861h-22.908076l-7.07411-21.824382-7.104212 21.824382h-22.908076l18.543199 13.455861zM564.182851 190.639739l18.543199-13.485963 18.513096 13.485963-7.07411-21.794279 18.543199-13.455861h-22.908075l-7.104213-21.824382-7.07411 21.824382h-22.908075l18.573301 13.455861zM693.202576 190.639739l18.513096-13.45586 18.543199 13.45586-7.07411-21.794279 18.543199-13.455861h-22.908075l-7.07411-21.824382-7.104213 21.824382h-22.877972l18.513096 13.455861zM139.796456 214.932534l-7.104213-21.79428-7.07411 21.79428h-22.908075l18.543199 13.485963-7.104213 21.764176 18.543199-13.45586 18.543199 13.45586-7.07411-21.764176 18.543199-13.485963zM268.816181 214.932534l-7.104213-21.79428-7.07411 21.79428h-22.908075l18.543199 13.485963-7.07411 21.764176 18.513096-13.45586 18.543199 13.45586-7.07411-21.764176 18.543199-13.485963zM397.835906 214.932534l-7.104212-21.79428-7.07411 21.79428h-22.908076l18.543199 13.485963-7.07411 21.764176 18.513097-13.45586 18.543199 13.45586-7.104213-21.764176 18.573302-13.485963zM526.825529 214.932534l-7.044007-21.79428-7.104213 21.79428h-22.908075l18.543199 13.485963-7.07411 21.764176 18.543199-13.45586 18.543199 13.45586-7.104213-21.764176 18.543199-13.485963zM655.875357 214.932534l-7.104212-21.79428-7.07411 21.79428h-22.908076l18.543199 13.485963-7.104212 21.764176 18.543199-13.45586 18.543199 13.45586-7.07411-21.794279 18.543199-13.45586zM75.286593 270.261105l-7.07411-21.824382-7.104213 21.824382h-22.908075l18.543199 13.45586-7.07411 21.764177 18.513096-13.455861 18.543199 13.455861-7.07411-21.734074 18.543199-13.485963zM204.306318 270.261105l-7.07411-21.824382-7.104212 21.824382h-22.908076l18.543199 13.45586-7.07411 21.764177 18.513097-13.455861 18.543199 13.455861-7.07411-21.764177 18.543199-13.45586zM333.295941 270.261105l-7.07411-21.824382-7.07411 21.824382H296.239646l18.543199 13.45586-7.07411 21.764177 18.513096-13.455861 18.543199 13.455861-7.07411-21.764177 18.543199-13.45586zM462.345769 270.261105l-7.07411-21.824382-7.104212 21.824382h-22.908076l18.543199 13.45586-7.07411 21.764177 18.513097-13.455861 18.543199 13.455861-7.07411-21.764177 18.543199-13.45586zM591.365495 270.261105l-7.104213-21.824382-7.07411 21.824382h-22.908075l18.543199 13.45586-7.07411 21.764177 18.513096-13.455861 18.543199 13.455861-7.07411-21.764177 18.543199-13.45586zM720.38522 270.261105l-7.07411-21.824382-7.104213 21.824382h-22.908075l18.543199 13.45586-7.07411 21.764177 18.513096-13.455861 18.543199 13.455861-7.07411-21.764177 18.543199-13.45586zM113.486787 357.076991l18.543199-13.485963 18.543199 13.485963-7.07411-21.794279 18.513096-13.485963H139.104096l-7.07411-21.79428-7.07411 21.79428h-22.908075l18.543199 13.485963zM242.506512 357.076991l18.543199-13.485963 18.543199 13.485963-7.07411-21.794279 18.543199-13.485963h-22.908075l-7.104213-21.79428-7.07411 21.79428h-22.908075l18.543199 13.485963zM371.526238 357.076991l18.543199-13.485963 18.543199 13.485963-7.104213-21.794279 18.543199-13.485963h-22.877973l-7.104212-21.79428-7.07411 21.79428h-22.908076l18.543199 13.485963zM500.576066 357.076991l18.513096-13.45586 18.543199 13.45586-7.07411-21.794279 18.543199-13.485963h-22.908075l-7.104213-21.79428-7.07411 21.79428h-22.908075l18.513096 13.485963zM629.565689 357.076991l18.543199-13.485963 18.543199 13.485963-7.07411-21.794279 18.543199-13.485963h-22.938178l-7.044008-21.79428-7.104212 21.79428h-22.908076l18.543199 13.485963zM49.007027 412.345357l18.513096-13.485963 18.543199 13.485963-7.104212-21.79428 18.543199-13.45586h-22.877973l-7.104213-21.794279-7.07411 21.794279h-22.908075l18.543199 13.45586zM177.99665 412.345357l18.543199-13.485963 18.543199 13.485963-7.104213-21.79428 18.573302-13.45586h-22.908076l-7.104212-21.794279-7.07411 21.794279h-22.908076l18.543199 13.45586zM307.046478 412.345357l18.513096-13.455861 18.543199 13.455861-7.07411-21.79428 18.543199-13.45586h-22.938178l-7.07411-21.794279-7.07411 21.794279h-22.938178l18.573302 13.485963zM436.0361 412.345357l18.543199-13.485963 18.543199 13.485963-7.07411-21.79428 18.543199-13.45586h-22.908075l-7.104213-21.794279-7.07411 21.794279h-22.938178l18.573302 13.45586zM565.085929 412.345357l18.513096-13.485963 18.543199 13.485963-7.104213-21.764177 18.543199-13.485963h-22.877972l-7.104213-21.794279-7.104213 21.794279h-22.877972l18.543199 13.45586zM694.105654 412.345357l18.513096-13.485963 18.543199 13.485963-7.104212-21.79428 18.543199-13.45586h-22.877973l-7.07411-21.794279-7.104213 21.794279h-22.908075l18.543199 13.45586zM141.692919 429.20281l-7.104212-21.794279-7.07411 21.794279h-22.908076l18.543199 13.485963-7.104212 21.79428 18.543199-13.485963 18.543199 13.485963-7.07411-21.79428 18.543199-13.485963zM270.712645 429.20281l-7.104213-21.794279-7.07411 21.794279H233.626247l18.543199 13.485963-7.104213 21.79428 18.543199-13.485963 18.543199 13.485963-7.07411-21.79428 18.543199-13.485963zM399.73237 429.20281l-7.07411-21.794279-7.104213 21.794279h-22.908075l18.543199 13.485963-7.07411 21.79428 18.513096-13.485963 18.543199 13.485963-7.07411-21.79428 18.543199-13.485963zM528.752095 429.20281l-7.104212-21.794279-7.07411 21.794279h-22.908076l18.543199 13.485963-7.07411 21.79428 18.513097-13.485963 18.543199 13.485963-7.104213-21.79428 18.573302-13.485963zM657.771821 429.20281l-7.104213-21.794279-7.07411 21.794279h-22.908075l18.543199 13.485963-7.07411 21.79428 18.543199-13.485963 18.513096 13.485963-7.07411-21.79428 18.543199-13.485963zM77.183056 484.531381l-7.104212-21.794279-7.07411 21.794279h-22.908076l18.543199 13.455861-7.07411 21.764176 18.513097-13.45586 18.543199 13.45586-7.07411-21.764176 18.513096-13.455861zM206.202782 484.531381l-7.104213-21.794279-7.07411 21.794279h-22.908075l18.543199 13.455861-7.07411 21.764176 18.513096-13.45586 18.543199 13.45586-7.07411-21.764176 18.543199-13.455861zM335.222507 484.531381l-7.104212-21.794279-7.07411 21.794279h-22.908076l18.543199 13.455861-7.07411 21.764176 18.513097-13.45586 18.543199 13.45586-7.07411-21.764176 18.543199-13.455861zM464.242233 484.531381l-7.07411-21.794279-7.104213 21.794279h-22.908075l18.543199 13.455861-7.104213 21.764176 18.543199-13.45586 18.543199 13.45586-7.07411-21.764176 18.543199-13.455861zM593.261958 484.531381l-7.104212-21.794279-7.07411 21.794279h-22.908076l18.543199 13.455861-7.07411 21.764176 18.513097-13.45586 18.543199 13.45586-7.07411-21.764176 18.543199-13.455861zM726.64656 497.987242l18.543199-13.455861h-22.908075l-7.104213-21.794279-7.07411 21.794279h-22.908075l18.543199 13.455861-7.07411 21.764176 18.543199-13.45586 18.513096 13.45586z" fill="#FFFFFF" p-id="7416"></path></svg>