<?xml version="1.0" standalone="no"?><!DOCTYPE svg PUBLIC "-//W3C//DTD SVG 1.1//EN" "http://www.w3.org/Graphics/SVG/1.1/DTD/svg11.dtd"><svg t="1649311398916" class="icon" viewBox="0 0 1549 1024" version="1.1" xmlns="http://www.w3.org/2000/svg" p-id="2861" xmlns:xlink="http://www.w3.org/1999/xlink" width="96.8125" height="64"><defs><style type="text/css">@font-face { font-family: feedback-iconfont; src: url("//at.alicdn.com/t/font_1031158_u69w8yhxdu.woff2?t=1630033759944") format("woff2"), url("//at.alicdn.com/t/font_1031158_u69w8yhxdu.woff?t=1630033759944") format("woff"), url("//at.alicdn.com/t/font_1031158_u69w8yhxdu.ttf?t=1630033759944") format("truetype"); }
</style></defs><path d="M15.058824 1016.470588h1517.17647V7.529412H15.058824V1016.470588z m1519.686274 3.764706V1016.470588v3.764706zM8.784314 1024V1.254902h1529.72549v1021.490196H8.784314z" fill="#353636" p-id="2862"></path><path d="M11.294118 766.745098h1523.45098v253.490196H11.294118z" fill="#26278A" p-id="2863"></path><path d="M11.294118 258.509804h1523.45098v508.235294H11.294118z" fill="#CA271F" p-id="2864"></path><path d="M11.294118 5.019608h1523.45098v253.490196H11.294118z" fill="#26278A" p-id="2865"></path><path d="M768 283.607843l6.27451-7.529412 7.529412 7.529412v8.784314h-13.803922zM765.490196 294.901961h17.568628v7.529412H765.490196zM761.72549 304.941176h23.843137v7.529412h-23.843137v-7.529412zM759.215686 314.980392H790.588235v8.784314h-31.372549v-8.784314z" fill="#FFFFFF" p-id="2866"></path><path d="M751.686275 321.254902l6.274509 5.019608H790.588235l6.27451-5.019608-5.019608 5.019608v8.784314h-10.039215l-6.27451-3.764706-6.27451 3.764706h-10.039216V326.27451l-7.529411-5.019608zM746.666667 332.54902l8.784313 5.019607h10.039216l-3.764706 5.019608-7.529412 1.254902v-6.27451zM793.098039 337.568627l8.784314-5.019607v1.254902l-6.27451 3.764705v12.54902h-6.27451l5.019608-5.019608-3.764706-3.764706-3.764706 1.254902-3.764705-5.019608z" fill="#FFFFFF" p-id="2867"></path><path d="M762.980392 347.607843l11.294118-13.803921 11.294117 13.803921 5.019608-2.509804-3.764706 5.019608-12.549019-6.27451-11.294118 6.27451-5.019608-5.019608zM513.254902 340.078431l1.254902-1.254902c3.764706 7.529412 7.529412 16.313725 8.784314 25.09804l-1.254902 11.294117-8.784314-1.254902-8.784314 2.509804v-12.549019c1.254902-8.784314 5.019608-16.313725 8.784314-23.843138zM1024 361.411765c2.509804-7.529412 5.019608-15.058824 8.784314-22.588236l2.509804 5.019608c3.764706 8.784314 7.529412 17.568627 7.529411 27.607843l-1.254902 3.764706-8.784313-1.254902-8.784314 2.509804v-15.058823zM752.941176 345.098039h1.254902l5.019608 5.019608h-5.019608zM741.647059 345.098039l8.784314 5.019608 1.254902 2.509804h7.529411l-2.509804 3.764706-6.274509-2.509804-1.254902-1.254902zM798.117647 351.372549l8.784314-6.27451-7.529412 7.529412v1.254902l-7.529412 2.509804-2.509804-3.764706h8.784314z" fill="#FFFFFF" p-id="2868"></path><path d="M757.960784 360.156863l15.058824-12.54902h5.019608l12.549019 12.54902 6.27451-2.509804-5.019608 3.764706-2.509804 1.254902h-7.529411l-7.529412-2.509804-7.529412 2.509804h-8.784314l-6.274509-5.019608zM750.431373 358.901961l3.764705 3.764706h-3.764705z" fill="#FFFFFF" p-id="2869"></path><path d="M735.372549 358.901961l12.54902 6.27451h15.058823l-8.784314 10.039215-10.039215-1.254902v-7.529411zM800.627451 365.176471l13.803922-6.27451-10.039216 7.529412v7.529411l-10.039216 1.254902-8.784314-10.039215z" fill="#FFFFFF" p-id="2870"></path><path d="M794.352941 362.666667l5.019608-3.764706v3.764706zM771.764706 363.921569l3.764706-1.254902c7.529412 2.509804 15.058824 8.784314 17.568627 17.568627l8.784314-3.764706-8.784314 8.784314h-8.784314l-10.039215-3.764706-11.294118 3.764706h-7.529412l-7.529411-8.784314 8.784313 3.764706c1.254902-7.529412 7.529412-13.803922 15.058824-16.313725zM724.078431 375.215686v-5.019608l12.54902 7.529412 5.019608 2.509804v3.764706h7.529412l6.274509 3.764706h5.019608-1.254902l-8.784313 11.294118h-15.058824v-17.568628zM809.411765 378.980392l12.549019-7.529412h3.764706l-1.254902 3.764706-11.294117 6.27451v17.568628l-7.529412-1.254902-6.27451 1.254902-2.509804-2.509804-8.784314-8.784314h6.27451l3.764706-3.764706h8.784314v-3.764706zM508.235294 376.470588l7.529412-1.254902c7.529412 1.254902 15.058824 3.764706 18.823529 11.294118l8.784314-1.254902-8.784314 3.764706h-8.784313l-12.54902-11.294118-11.294118 11.294118h-8.784313l-8.784314-3.764706 7.529412 1.254902 16.313725-10.039216zM1011.45098 386.509804c3.764706-6.27451 11.294118-8.784314 18.82353-10.039216l8.784314 1.254902 15.058823 10.039216 7.529412-1.254902-7.529412 2.509804h-8.784314l-12.549019-11.294118-12.54902 11.294118h-8.784314l-7.529411-3.764706 7.529411 1.254902z" fill="#FFFFFF" p-id="2871"></path><path d="M744.156863 381.490196v-3.764706l3.764706 3.764706zM800.627451 381.490196l3.764706-3.764706v3.764706zM512 381.490196l6.27451 2.509804 5.019608 8.784314-10.039216-2.509804-8.784314 2.509804zM1031.529412 381.490196l5.019608 2.509804 6.274509 8.784314-10.039215-2.509804-10.039216 2.509804zM770.509804 384l5.019608-1.254902c10.039216 3.764706 18.823529 11.294118 22.588235 21.333333l11.294118-3.764706-11.294118 11.294118-6.27451-1.254902-16.313725-7.529412-3.764706 1.254902-15.058824 8.784314h-5.019607L740.392157 401.568627l11.294118 3.764706c2.509804-10.039216 10.039216-17.568627 18.823529-21.333333z" fill="#FFFFFF" p-id="2872"></path><path d="M712.784314 391.529412l12.549019 3.764706 11.294118 5.019607 13.803922 12.54902h2.509803l-7.529411 10.039216-17.568628 1.254902v-23.843138l-12.549019-3.764705-2.509804-5.019608zM830.745098 392.784314h5.019608l-2.509804 3.764706-12.54902 3.764705v25.09804-1.254902l-6.274509-1.254902-11.294118 2.509804-7.529412-11.294118h2.509804l13.803922-12.54902 5.019607-1.254902 13.803922-7.529411zM1011.45098 405.333333c5.019608-7.529412 12.54902-11.294118 20.078432-12.549019 7.529412 2.509804 15.058824 5.019608 20.078431 11.294117l1.254902 7.529412c-5.019608-5.019608-12.54902-8.784314-20.078431-11.294118-7.529412 1.254902-15.058824 5.019608-20.078432 11.294118l-1.254902-6.27451zM493.176471 405.333333c3.764706-6.27451 11.294118-11.294118 18.823529-12.549019l8.784314 1.254902 13.803921 11.294117v5.019608c-5.019608-6.27451-12.54902-10.039216-20.078431-11.294117-7.529412 1.254902-15.058824 5.019608-20.078431 11.294117l-1.254902-5.019608z" fill="#FFFFFF" p-id="2873"></path><path d="M493.176471 416.627451c3.764706-6.27451 11.294118-11.294118 18.823529-12.54902l6.27451 1.254902 15.058823 11.294118v6.27451H527.058824l-12.54902-10.039216h-2.509804l-13.803922 11.294118h-6.274509l1.254902-7.529412zM1012.705882 414.117647l17.568628-10.039216 7.529412 1.254902 15.058823 11.294118v6.27451h-6.27451l-12.549019-11.294118h-2.509804l-12.54902 10.039216-6.27451 1.254902zM746.666667 429.176471c3.764706-12.54902 16.313725-20.078431 27.607843-23.843138l15.058823 7.529412 12.54902 16.313726 13.803922-3.764706-13.803922 12.549019h-12.54902l-15.058823-7.529411-13.803922 7.529411h-12.549019l-13.803922-12.549019v-1.254902l12.54902 5.019608z" fill="#FFFFFF" p-id="2874"></path><path d="M493.176471 444.235294c2.509804-12.54902 10.039216-23.843137 20.078431-30.117647l5.019608 2.509804c8.784314 6.27451 13.803922 16.313725 16.313725 27.607843h1.254902l10.039216-5.019608-11.294118 16.313726v-1.254902c-3.764706-8.784314-10.039216-16.313725-18.823529-20.078432H514.509804c-8.784314 3.764706-16.313725 12.54902-20.078431 21.333334l-1.254902-1.254902-10.039216-15.058824 8.784314 3.764706 1.254902 1.254902zM537.098039 414.117647l1.254902 2.509804 3.764706 6.27451 12.54902-3.764706-13.803922 11.294118h-5.019608l-6.27451-5.019608h7.529412zM1011.45098 444.235294c2.509804-12.54902 10.039216-23.843137 21.333334-30.117647 11.294118 6.27451 18.823529 17.568627 21.333333 30.117647l11.294118-6.27451-11.294118 16.313726c-3.764706-8.784314-11.294118-17.568627-20.078431-22.588235-10.039216 3.764706-16.313725 12.54902-20.078432 22.588235l-12.549019-15.058824 10.039215 5.019608zM701.490196 415.372549h5.019608l18.823529 10.039216v2.509804l8.784314 1.254902 12.54902 11.294117h3.764706l2.509803 3.764706-5.019607 5.019608h-28.862745v-21.333333l-13.803922-6.27451-3.764706-6.27451zM843.294118 415.372549h3.764706l-3.764706 6.27451-13.803922 6.27451v21.333333h-28.862745l-5.019608-6.27451 2.509804-2.509804 5.019608-1.254902 12.54902-11.294117h6.274509v-2.509804l21.333334-10.039216zM486.901961 422.901961l3.764706-6.27451v8.784314h7.529411l-1.254902 1.254902-5.019607 3.764706h-5.019608l-13.803922-11.294118z" fill="#FFFFFF" p-id="2875"></path><path d="M683.921569 468.078431v-47.686274l11.294117 12.549019h21.333334v16.313726c-6.27451-3.764706-13.803922-7.529412-21.333334-10.039216h-8.784313l-2.509804 5.019608 6.274509 5.019608 15.058824 3.764706v31.372549h43.921569l-6.27451 11.294118-12.54902-3.764706-6.27451 2.509804 3.764706 2.509803h-42.666666c-1.254902-10.039216-1.254902-18.823529-1.254902-28.862745zM865.882353 419.137255v76.54902h-42.666667l2.509804-2.509804-2.509804-2.509804-15.058823 3.764706-6.27451-10.039216h43.921569v-31.372549l15.058823-5.019608 5.019608-3.764706-2.509804-6.27451h-7.529412c-7.529412 2.509804-15.058824 6.27451-21.333333 10.039216v-16.313725h21.333333l10.039216-12.54902zM1005.176471 427.921569l3.764705-8.784314 1.254902 6.27451h6.27451l-6.27451 8.784313h-5.019607l-13.803922-10.039215zM1056.627451 420.392157l2.509804 7.529412 13.803921-3.764706-13.803921 10.039215H1054.117647l-6.27451-8.784313h7.529412zM533.333333 430.431373l6.27451 6.274509-2.509804 2.509804zM488.156863 436.705882l6.27451-5.019607-3.764706 7.529411z" fill="#FFFFFF" p-id="2876"></path><path d="M744.156863 463.058824c3.764706-13.803922 16.313725-25.098039 30.117647-30.117648l5.019608 1.254902c12.54902 5.019608 22.588235 15.058824 26.352941 27.607844l2.509804-1.254902 13.803921-3.764706-16.313725 16.313725h-13.803922l-2.509804-1.254902-12.549019-6.27451h-3.764706l-13.803922 7.529412h-15.058823L727.843137 456.784314v-1.254902l16.313726 7.529412zM512 436.705882l5.019608 1.254902c10.039216 6.27451 16.313725 17.568627 17.568627 28.862745l11.294118-6.274509-11.294118 16.313725h-1.254902c-3.764706-7.529412-8.784314-16.313725-16.313725-21.333333h-3.764706c-7.529412 5.019608-13.803922 12.54902-17.568627 21.333333l-3.764706-2.509804-10.039216-13.803921 8.784314 5.019607 1.254902 1.254902c3.764706-12.54902 10.039216-23.843137 20.078431-30.117647zM1025.254902 440.470588l7.529412-5.019608 12.549019 11.294118 7.529412 18.823529h1.254902l10.039216-5.019607-11.294118 16.313725h-2.509804v-1.254902l-13.803921-17.568627-5.019608-2.509804-6.27451 3.764706-12.54902 18.823529h-1.254902l-11.294117-16.313725 11.294117 6.274509v-2.509804c3.764706-10.039216 7.529412-18.823529 13.803922-25.098039z" fill="#FFFFFF" p-id="2877"></path><path d="M686.431373 440.470588l10.039215 1.254902c7.529412 2.509804 13.803922 6.27451 20.078432 10.039216h28.862745l-3.764706 7.529412-11.294118-3.764706-6.27451 2.509804 18.82353 18.823529h5.019608l3.764706 5.019608h-42.666667V451.764706l-18.82353-6.27451-3.764705-5.019608zM852.078431 441.72549l10.039216-1.254902-5.019608 5.019608-16.313725 3.764706v30.117647h-43.921569l3.764706-5.019608h5.019608l18.823529-18.823529-6.27451-2.509804-11.294117 3.764706-3.764706-5.019608h28.862745c6.27451-3.764706 12.54902-7.529412 20.078431-10.039216zM545.882353 442.980392l3.764706 8.784314 18.823529-5.019608-11.294117 10.039216-10.039216 2.509804-11.294118 1.254902v-2.509804zM478.117647 451.764706l3.764706-7.529412 10.039216 13.803922v1.254902c-8.784314-1.254902-17.568627-3.764706-25.09804-6.27451l-7.529411-5.019608 18.823529 3.764706zM996.392157 456.784314l6.27451-11.294118 7.529411 11.294118v5.019608l-7.529411-3.764706-5.019608 2.509804 5.019608 7.529411h-6.27451L977.568627 451.764706zM1061.647059 446.745098l2.509804 1.254902 3.764706 8.784314 18.823529-5.019608-18.823529 16.313725h-5.019608l5.019608-7.529411-5.019608-2.509804-7.529412 3.764706-1.254902-3.764706zM459.294118 450.509804c6.27451 5.019608 12.54902 6.27451 20.078431 8.784314v1.254902l12.54902 17.568627 2.509804 1.254902-3.764706 10.039216-1.254902 8.784313-8.784314-1.254902-2.509804 2.509804 12.54902 13.803922h-31.372549V501.960784v-51.45098z" fill="#FFFFFF" p-id="2878"></path><path d="M973.803922 450.509804c7.529412 6.27451 15.058824 13.803922 22.588235 20.078431h8.784314l6.274509 8.784314h2.509804v1.254902l-3.764706 16.313725-7.529411-2.509803-3.764706 2.509803 12.549019 13.803922h-37.647058v-20.078431c0-12.54902-1.254902-26.352941 0-40.156863zM548.392157 461.803922c8.784314-1.254902 18.823529-3.764706 26.352941-10.039216v27.607843c0 7.529412 0 15.058824-1.254902 22.588235v8.784314h-35.137255l11.294118-12.54902v-1.254902h-11.294118l-3.764706-17.568627h2.509804l11.294118-17.568627zM1067.921569 470.588235l18.823529-16.313725c0 10.039216 0 18.823529-1.254902 28.862745 0 10.039216-1.254902 18.823529-1.254902 28.862745H1054.117647l12.54902-13.803922h-11.294118l-3.764706-17.568627h2.509804l6.27451-8.784314 7.529412-1.254902z" fill="#FFFFFF" p-id="2879"></path><path d="M1013.960784 483.137255c3.764706-10.039216 8.784314-18.823529 17.568628-25.098039 8.784314 5.019608 13.803922 13.803922 17.568627 23.843137l3.764706 12.54902c-5.019608-7.529412-11.294118-13.803922-20.078431-17.568628h-2.509804c-7.529412 3.764706-15.058824 8.784314-18.82353 16.313726l2.509804-10.039216zM495.686275 484.392157c3.764706-10.039216 8.784314-20.078431 17.568627-26.352941h1.254902c8.784314 6.27451 15.058824 16.313725 17.568627 25.098039l2.509804 11.294118c-5.019608-7.529412-11.294118-15.058824-20.078431-17.568628l-3.764706 1.254902c-7.529412 3.764706-13.803922 8.784314-17.568627 16.313726l2.509804-10.039216zM769.254902 471.843137l6.27451-2.509804c8.784314 2.509804 17.568627 8.784314 22.588235 16.313726l7.529412 13.803921 16.313725-5.019607-16.313725 16.313725h-60.235294L727.843137 493.176471l15.058824 5.019607h1.254902c3.764706-11.294118 13.803922-21.333333 25.098039-26.352941zM750.431373 476.862745h5.019607l-2.509804 2.509804z" fill="#FFFFFF" p-id="2880"></path><path d="M793.098039 476.862745h5.019608l-2.509804 2.509804zM510.745098 480.627451l3.764706-1.254902c10.039216 3.764706 17.568627 12.54902 20.078431 22.588235l10.039216-5.019608-10.039216 11.294118h-41.411764l-10.039216-11.294118 10.039216 5.019608c2.509804-8.784314 8.784314-16.313725 17.568627-21.333333zM1011.45098 503.215686c2.509804-10.039216 11.294118-18.823529 21.333334-22.588235 10.039216 3.764706 17.568627 12.54902 21.333333 22.588235l10.039216-5.019608-8.784314 10.039216-3.764706 2.509804h-40.156863l-11.294117-11.294118 11.294117 3.764706zM435.45098 488.156863h21.333334v22.588235h-21.333334v-22.588235zM576 488.156863h105.411765v11.294117h2.509804l12.549019 11.294118h-121.72549c0-7.529412 1.254902-15.058824 1.254902-22.588235zM867.137255 488.156863h102.901961v22.588235h-117.960785l12.54902-11.294118h2.509804v-11.294117zM1089.254902 510.745098c0-7.529412 0-15.058824 1.254902-22.588235h25.098039v22.588235h-26.352941z" fill="#FFFFFF" p-id="2881"></path><path d="M687.686275 499.45098h42.666666l8.784314 8.784314h-40.156863l-11.294117-8.784314zM819.45098 499.45098h42.666667l-11.294118 8.784314h-40.156862l8.784313-8.784314zM582.27451 513.254902H702.745098v21.333333h-120.470588v-21.333333zM751.686275 513.254902h6.274509v10.039216zM760.470588 513.254902h27.607843v235.921569h-27.607843V513.254902zM790.588235 513.254902h6.27451l-6.27451 8.784314zM800.627451 513.254902h6.27451v104.156863H803.137255v-56.470589h-12.54902V527.058824l10.039216-13.803922zM843.294118 513.254902h117.960784v21.333333h-119.215686c1.254902-7.529412 1.254902-15.058824 1.254902-21.333333zM965.019608 513.254902h5.019608l1.254902 1.254902h42.666666v102.901961h-1.254902v-56.470589h-15.058823V616.156863H966.27451c-1.254902-33.882353-2.509804-69.019608-1.254902-102.901961zM1089.254902 513.254902H1093.019608v102.901961h-21.333333v-56.470588h-16.313726v56.470588H1054.117647v-102.901961H1089.254902zM441.72549 513.254902h8.784314v21.333333h-8.784314v-21.333333zM451.764706 616.156863v-104.156863h3.764706l1.254902 1.254902h37.647059v102.901961h-2.509804v-56.470588H476.862745v56.470588c-8.784314 1.254902-16.313725 0-25.098039 0zM574.745098 513.254902h3.764706v104.156863h-27.607843v-56.470589h-16.313726v56.470589h-2.509804V514.509804h41.411765v-1.254902zM705.254902 616.156863v-104.156863H740.392157v104.156863h-2.509804v-56.470588h-15.058824v56.470588h-17.568627zM742.901961 616.156863v-104.156863h5.019608l10.039215 15.058824v32.627451h-12.549019v56.470588h-2.509804zM809.411765 617.411765v-104.156863H840.784314v104.156863h-12.54902v-56.470589h-16.313725v56.470589h-2.509804zM1095.529412 513.254902h10.039215v21.333333h-10.039215v-21.333333zM496.941176 514.509804h3.764706v121.72549h-3.764706V514.509804zM503.215686 514.509804h22.588236v121.72549h-22.588236V514.509804zM1016.470588 514.509804h3.764706v121.72549H1016.470588V514.509804zM1022.745098 634.980392v-121.72549h22.588235v121.72549c-8.784314 1.254902-15.058824 1.254902-22.588235 0zM527.058824 634.980392v-121.72549h3.764705v121.72549H527.058824zM1046.588235 636.235294V514.509804h3.764706v121.72549h-3.764706zM444.235294 535.843137h5.019608v80.313726h-5.019608v-80.313726zM582.27451 535.843137H702.745098v80.313726h-7.529412v-56.470588h-16.313725v56.470588h-7.529412v-56.470588h-16.313725v56.470588h-5.019608v-56.470588h-16.313726v56.470588h-5.019608v-56.470588h-15.058823v56.470588h-7.529412v-56.470588h-15.058823v56.470588h-8.784314v-80.313726zM843.294118 535.843137h119.215686v80.313726h-5.019608v-56.470588h-15.058823v56.470588h-7.529412v-56.470588h-15.058824v56.470588h-5.019608v-56.470588h-15.058823v56.470588H890.980392v-18.82353-37.647058h-16.313725v56.470588h-7.529412v-56.470588h-16.313726v56.470588h-8.784313c1.254902-26.352941 1.254902-52.705882 1.254902-80.313726zM1095.529412 535.843137h6.27451v80.313726h-6.27451V602.352941v-66.509804z" fill="#FFFFFF" p-id="2882"></path><path d="M479.372549 563.45098h10.039216v53.960785h-10.039216v-53.960785zM538.352941 563.45098h10.039216v53.960785h-10.039216v-53.960785zM617.411765 563.45098h10.039215v53.960785h-10.039215v-53.960785zM637.490196 563.45098h10.039216v53.960785h-10.039216v-53.960785zM658.823529 616.156863v-53.960785h10.039216v53.960785h-10.039216zM682.666667 563.45098h10.039215v53.960785h-10.039215v-53.960785zM724.078431 563.45098h10.039216v53.960785h-10.039216v-53.960785zM747.921569 563.45098h10.039215v53.960785h-10.039215v-53.960785zM790.588235 563.45098h10.039216v53.960785H790.588235v-53.960785zM815.686275 563.45098h10.039215v53.960785H815.686275v-53.960785zM854.588235 563.45098h10.039216v53.960785h-10.039216V596.078431v-32.627451zM877.176471 563.45098h10.039215v53.960785h-10.039215v-53.960785zM898.509804 563.45098h10.039216v53.960785h-10.039216v-53.960785zM943.686275 563.45098h10.039215v53.960785h-10.039215v-53.960785zM998.901961 563.45098h10.039215v53.960785h-10.039215v-53.960785zM1057.882353 563.45098h10.039216v53.960785h-10.039216v-53.960785zM593.568627 616.156863v-53.960785h10.039216v53.960785h-10.039216zM919.843137 563.45098h10.039216v53.960785h-10.039216v-53.960785zM484.392157 619.921569h6.27451l-2.509804 15.058823h-8.784314zM535.843137 619.921569h6.27451l5.019608 15.058823H539.607843zM444.235294 619.921569h5.019608l-7.529412 15.058823h-5.019608zM444.235294 634.980392l8.784314-16.313725h28.862745l-5.019608 16.313725c-10.039216 0-21.333333 1.254902-32.627451 0zM493.176471 623.686275l1.254902-5.019608v16.313725l-3.764706 1.254902zM545.882353 619.921569h35.137255l8.784314 16.313725h-38.901961l-5.019608-16.313725zM583.529412 619.921569H702.745098l-8.784314 16.313725h-102.90196l-7.529412-16.313725zM697.72549 634.980392l8.784314-16.313725h31.372549l-5.019608 16.313725c-11.294118 0-23.843137 1.254902-35.137255 0zM736.627451 631.215686l3.764706-11.294117h10.039216l-2.509804 15.058823h-12.54902zM752.941176 619.921569h5.019608v16.313725l-7.529411-1.254902zM790.588235 636.235294v-16.313725h3.764706l2.509804 15.058823zM796.862745 619.921569h10.039216l3.764706 15.058823h-11.294118zM809.411765 619.921569H840.784314l8.784313 16.313725h-35.137254l-5.019608-16.313725zM843.294118 619.921569h117.960784l-7.529412 15.058823h-101.647059l-8.784313-15.058823zM965.019608 619.921569h33.882353v1.254902l-3.764706 15.058823h-38.901961l8.784314-16.313725zM1002.666667 619.921569h7.529411l-2.509803 16.313725-8.784314-1.254902zM1011.45098 636.235294l2.509804-17.568627v17.568627zM1056.627451 619.921569h8.784314l3.764706 15.058823h-10.039216zM1067.921569 619.921569H1091.764706l8.784314 16.313725h-28.862745l-3.764706-16.313725zM1095.529412 619.921569h7.529412l6.274509 15.058823H1104.313725zM1052.862745 636.235294v-16.313725l3.764706 15.058823zM533.333333 619.921569l2.509804 15.058823h-2.509804zM1015.215686 638.745098h3.764706v110.431373h-3.764706v-110.431373zM1046.588235 638.745098l3.764706 1.254902v109.176471h-3.764706v-110.431373zM415.372549 638.745098h79.058824v3.764706h-79.058824v-3.764706zM496.941176 747.921569v-110.431373h3.764706v110.431373h-3.764706zM503.215686 747.921569v-110.431373h21.333334v110.431373c-7.529412 1.254902-13.803922 1.254902-21.333334 0zM527.058824 638.745098h3.764705v110.431373H527.058824v-110.431373zM533.333333 638.745098h224.627451v3.764706H533.333333v-3.764706zM790.588235 642.509804v-3.764706h222.117647v3.764706H790.588235zM1021.490196 638.745098h22.588235v110.431373H1022.745098c-1.254902-37.647059-1.254902-74.039216-1.254902-110.431373zM1052.862745 642.509804v-3.764706H1129.411765v3.764706h-76.54902zM790.588235 645.019608h222.117647v15.058823H790.588235v-15.058823zM404.078431 645.019608h90.352942v15.058823H404.078431v-15.058823zM533.333333 645.019608h224.627451v15.058823H534.588235l-1.254902-15.058823zM1052.862745 645.019608h87.843137v15.058823H1054.117647l-1.254902-15.058823zM385.254902 663.843137H494.431373v20.078432h-109.176471v-20.078432zM533.333333 663.843137h224.627451v20.078432H533.333333v-20.078432zM790.588235 663.843137h222.117647v20.078432H790.588235v-20.078432zM1052.862745 683.921569v-20.078432h109.176471v20.078432h-109.176471zM357.647059 686.431373h136.784314v30.117647H357.647059v-30.117647zM533.333333 686.431373h224.627451v30.117647H533.333333v-30.117647zM790.588235 686.431373h222.117647v30.117647H790.588235v-30.117647zM1052.862745 686.431373h136.784314v30.117647H1052.862745v-30.117647zM330.039216 719.058824h164.392157v28.862745H330.039216v-28.862745zM533.333333 719.058824h224.627451v28.862745H533.333333v-28.862745zM790.588235 719.058824h222.117647v28.862745H790.588235v-28.862745zM1052.862745 719.058824H1217.254902v28.862745H1052.862745v-28.862745z" fill="#FFFFFF" p-id="2883"></path></svg>